<?xml version="1.0" standalone="no"?>
<!DOCTYPE svg PUBLIC "-//W3C//DTD SVG 20010904//EN"
 "http://www.w3.org/TR/2001/REC-SVG-20010904/DTD/svg10.dtd">
<svg version="1.0" xmlns="http://www.w3.org/2000/svg"
 width="506.000000pt" height="100.000000pt" viewBox="0 0 506.000000 100.000000"
 preserveAspectRatio="xMidYMid meet">

<g transform="translate(0.000000,100.000000) scale(0.100000,-0.100000)"
fill="#000000" stroke="none">
<path d="M2815 990 c-44 -18 -70 -59 -70 -111 0 -41 5 -53 31 -80 63 -63 164
-40 191 44 31 93 -63 184 -152 147z"/>
<path d="M2408 971 c-70 -9 -129 -19 -132 -22 -3 -3 10 -21 29 -39 l35 -34 0
-145 0 -146 -26 33 c-36 45 -74 62 -140 62 -79 0 -128 -17 -179 -62 -83 -73
-122 -204 -104 -348 19 -155 98 -249 222 -266 65 -9 125 12 174 61 51 50 57
73 13 50 -102 -53 -179 28 -188 199 -10 192 56 313 160 292 68 -14 69 -16 68
-255 0 -119 -1 -244 0 -278 l0 -63 146 0 147 0 -42 45 -41 45 0 445 c0 245 -3
444 -7 444 -5 -1 -65 -9 -135 -18z"/>
<path d="M40 945 c0 -3 23 -35 50 -71 l50 -65 0 -304 0 -303 -69 -94 -69 -93
84 -3 c47 -1 120 -1 164 0 l78 3 -69 93 -69 94 0 256 c0 152 4 251 9 242 5 -8
78 -168 161 -355 84 -187 153 -341 154 -343 2 -1 67 161 146 360 78 200 146
366 149 370 3 4 5 -136 3 -310 l-2 -317 -45 -43 c-25 -24 -45 -45 -45 -48 0
-2 98 -4 217 -4 l217 0 -52 53 -52 53 0 360 0 360 51 57 51 57 -154 0 -154 0
-114 -285 c-63 -157 -116 -285 -120 -285 -3 0 -63 128 -134 285 l-129 285
-153 0 c-85 0 -154 -2 -154 -5z"/>
<path d="M1404 669 c-50 -14 -126 -71 -156 -115 -62 -93 -75 -263 -28 -371 26
-62 89 -125 155 -155 75 -34 200 -32 276 4 68 31 118 93 144 178 7 23 5 22
-20 -8 -75 -90 -218 -104 -296 -29 -39 38 -56 76 -65 145 l-7 52 202 0 201 0
0 43 c0 116 -67 217 -165 250 -53 18 -188 22 -241 6z m158 -26 c31 -35 39 -66
45 -154 l6 -89 -103 0 -103 0 7 76 c11 125 45 184 107 184 14 0 33 -8 41 -17z"/>
<path d="M4280 669 c-43 -17 -87 -57 -106 -96 l-19 -38 -3 68 -3 67 -141 0
-140 0 36 -40 36 -40 0 -290 0 -290 148 0 147 0 -42 40 -43 39 0 211 0 212 29
29 c34 33 91 40 128 14 41 -29 47 -74 45 -318 l-3 -227 148 0 147 0 -36 38
-37 37 -2 219 -2 220 27 23 c39 34 97 34 133 1 35 -32 43 -93 43 -322 l0 -216
148 0 147 1 -42 37 -43 38 0 200 c0 225 -10 281 -60 338 -41 47 -77 59 -159
54 -83 -4 -138 -37 -179 -106 l-26 -45 -9 29 c-15 44 -52 89 -90 108 -39 18
-137 21 -177 5z"/>
<path d="M2713 632 l37 -38 0 -292 0 -292 147 0 147 0 -37 38 -37 38 0 292 0
292 -147 0 -147 0 37 -38z"/>
<path d="M3102 633 l36 -38 5 -210 c3 -165 8 -220 21 -256 35 -95 129 -146
223 -120 58 15 108 52 137 100 l21 36 3 -68 3 -67 147 0 146 0 -42 43 -42 43
0 287 0 287 -141 0 -141 0 36 -44 36 -44 0 -207 c0 -204 0 -206 -24 -230 -46
-46 -112 -45 -143 2 -16 24 -18 58 -21 275 l-3 248 -147 0 -146 0 36 -37z"/>
</g>
</svg>
